<svg width="178" height="46" viewBox="0 0 178 46" fill="none" xmlns="http://www.w3.org/2000/svg">
<rect width="176.967" height="45.4835" transform="translate(0.516602)" fill="#EBF4EB"/>
<path d="M27.4231 30.9953C26.5471 30.9953 25.8017 30.8724 25.187 30.6265C24.5876 30.3652 24.0497 29.958 23.5732 29.4047L23.3197 30.7418H21.3371V25.1629H23.4349C23.5271 26.6998 23.9037 27.791 24.5645 28.4364C25.2254 29.0666 26.1014 29.3816 27.1926 29.3816C28.0686 29.3816 28.7679 29.1972 29.2904 28.8283C29.813 28.4595 30.0742 27.8909 30.0742 27.1224C30.0742 26.4923 29.8975 25.9774 29.544 25.5778C29.2059 25.1629 28.7218 24.8017 28.0917 24.4943C27.4769 24.1716 26.7546 23.8412 25.9247 23.5031C24.9718 23.1035 24.1573 22.6962 23.481 22.2812C22.8048 21.8663 22.2899 21.3668 21.9365 20.7828C21.583 20.1988 21.4062 19.4611 21.4062 18.5697C21.4062 17.0789 21.8596 15.9263 22.7664 15.1117C23.6885 14.2972 24.918 13.8899 26.4549 13.8899C27.9764 13.8899 29.2136 14.3202 30.1665 15.1809L30.3509 14.1435H32.3335V19.7223H30.3278C30.3278 18.2777 30.0589 17.2095 29.521 16.5179C28.9831 15.8264 28.1531 15.4806 27.0312 15.4806C25.2945 15.4806 24.4262 16.3028 24.4262 17.9472C24.4262 18.4852 24.5338 18.9155 24.749 19.2382C24.9641 19.561 25.3176 19.8607 25.8094 20.1373C26.3166 20.4139 27.0005 20.7444 27.8611 21.1286C29.1521 21.7126 30.1818 22.2582 30.9503 22.7654C31.7187 23.2725 32.2643 23.8104 32.587 24.3791C32.9251 24.9324 33.0942 25.5855 33.0942 26.3386C33.0942 27.3683 32.8406 28.229 32.3335 28.9206C31.8263 29.6122 31.1424 30.1347 30.2817 30.4882C29.4364 30.8263 28.4836 30.9953 27.4231 30.9953ZM39.2789 33.1623L41.5151 33.6004V34.8913H34.5761V33.6004L36.3512 33.1623V20.022L34.5761 19.584V18.293H38.5873L38.9331 20.0681C39.4249 19.2997 39.9782 18.7772 40.593 18.5005C41.2231 18.2085 41.9301 18.0625 42.7139 18.0625C43.4977 18.0625 44.2046 18.1778 44.8348 18.4083C45.4802 18.6388 46.0028 19.0077 46.4024 19.5149C46.8634 20.0989 47.2246 20.8058 47.4859 21.6358C47.7625 22.4503 47.9008 23.334 47.9008 24.2869C47.9008 25.2705 47.7471 26.2003 47.4398 27.0763C47.1478 27.937 46.7482 28.6593 46.241 29.2433C45.3803 30.2423 44.1432 30.7418 42.5294 30.7418C41.8686 30.7418 41.2692 30.6188 40.7313 30.3729C40.2088 30.1116 39.7246 29.6659 39.2789 29.0358V33.1623ZM39.2559 24.2869C39.2559 25.1322 39.325 25.8622 39.4634 26.4769C39.6017 27.0917 39.7861 27.5912 40.0166 27.9754C40.2472 28.3596 40.5392 28.6593 40.8927 28.8745C41.2615 29.0896 41.6842 29.1972 42.1606 29.1972C42.637 29.1972 43.0212 29.0973 43.3132 28.8975C43.6206 28.6977 43.8665 28.4364 44.0509 28.1137C44.2815 27.7141 44.4582 27.1993 44.5812 26.5691C44.7195 25.939 44.7886 25.2551 44.7886 24.5174C44.7886 23.749 44.7195 23.0266 44.5812 22.3504C44.4429 21.6588 44.2584 21.1055 44.0279 20.6906C43.7974 20.291 43.513 20.0143 43.1749 19.8607C42.8368 19.707 42.4526 19.6301 42.0223 19.6301C41.5458 19.6301 41.1462 19.7147 40.8235 19.8837C40.5008 20.0528 40.2241 20.3217 39.9936 20.6906C39.7784 21.0441 39.6017 21.5205 39.4634 22.1199C39.325 22.7193 39.2559 23.4416 39.2559 24.2869ZM56.379 19.9759C56.2099 19.9759 56.0178 20.0835 55.8027 20.2987C55.5875 20.4985 55.3877 20.7367 55.2033 21.0133C55.0342 21.29 54.9113 21.5359 54.8344 21.751C54.65 22.2736 54.4886 22.8115 54.3503 23.3647C54.212 23.918 54.1428 24.5942 54.1428 25.3934V29.0128L56.6326 29.4508V30.7418H49.44V29.4508L51.2151 29.0128V19.6762L49.44 19.2382V18.293H53.4512L53.9584 21.3361H54.0506C54.4041 20.291 54.8805 19.4841 55.4799 18.9155C56.0793 18.3468 56.7402 18.0625 57.4625 18.0625C58.0619 18.0625 58.5614 18.2546 58.961 18.6388C59.3605 19.0077 59.5603 19.5072 59.5603 20.1373C59.5603 20.5984 59.422 21.021 59.1454 21.4052C58.8687 21.7741 58.4768 21.9585 57.9697 21.9585C57.3549 21.9585 56.9169 21.8202 56.6556 21.5435C56.3944 21.2515 56.2637 20.9365 56.2637 20.5984C56.2637 20.4908 56.2637 20.4139 56.2637 20.3678C56.2791 20.3064 56.3175 20.1757 56.379 19.9759ZM72.4408 24.5174C72.4408 25.501 72.2948 26.4308 72.0027 27.3068C71.7261 28.1675 71.3188 28.8898 70.7809 29.4738C70.2738 30.0117 69.659 30.396 68.9367 30.6265C68.2297 30.857 67.3998 30.9723 66.4469 30.9723C65.4941 30.9723 64.6565 30.857 63.9341 30.6265C63.2272 30.396 62.6201 30.0117 62.1129 29.4738C61.575 28.8898 61.1601 28.1675 60.8681 27.3068C60.5914 26.4308 60.4531 25.501 60.4531 24.5174C60.4531 23.5338 60.5914 22.604 60.8681 21.728C61.1601 20.8519 61.575 20.1296 62.1129 19.561C62.6201 19.0231 63.2272 18.6388 63.9341 18.4083C64.6565 18.1778 65.4941 18.0625 66.4469 18.0625C67.3998 18.0625 68.2297 18.1778 68.9367 18.4083C69.659 18.6388 70.2738 19.0231 70.7809 19.561C71.3188 20.1296 71.7261 20.8519 72.0027 21.728C72.2948 22.604 72.4408 23.5338 72.4408 24.5174ZM64.3491 28.5056C64.5643 28.813 64.8409 29.0435 65.179 29.1972C65.5325 29.3509 65.9551 29.4277 66.4469 29.4277C66.9387 29.4277 67.3614 29.3509 67.7149 29.1972C68.0683 29.0435 68.345 28.813 68.5448 28.5056C69.0366 27.7525 69.2825 26.4231 69.2825 24.5174C69.2825 23.5492 69.221 22.7346 69.098 22.0738C68.9751 21.4129 68.7907 20.8981 68.5448 20.5292C68.345 20.2218 68.0683 19.9913 67.7149 19.8376C67.3614 19.6839 66.9387 19.6071 66.4469 19.6071C65.9551 19.6071 65.5325 19.6839 65.179 19.8376C64.8409 19.9913 64.5643 20.2218 64.3491 20.5292C63.8573 21.2823 63.6114 22.6117 63.6114 24.5174C63.6114 26.4231 63.8573 27.7525 64.3491 28.5056ZM78.3136 18.293V24.4713C78.3136 25.4549 78.3366 26.1926 78.3827 26.6844C78.4288 27.1762 78.498 27.5681 78.5902 27.8601C78.7131 28.229 78.9129 28.5133 79.1896 28.7131C79.4816 28.8975 79.7736 28.9897 80.0656 28.9897C80.4806 28.9897 80.8571 28.9129 81.1952 28.7592C81.5333 28.6055 81.8484 28.398 82.1404 28.1368C82.7705 27.5681 83.1163 26.6844 83.1778 25.4856V20.022L81.1721 19.584V18.293H86.1055V29.0128L87.8806 29.4508V30.7418L83.6158 30.9723L83.3622 28.4364H83.27C82.8243 29.2203 82.2172 29.8427 81.4488 30.3037C80.6803 30.7494 79.8581 30.9723 78.9821 30.9723C78.3981 30.9723 77.8602 30.8647 77.3684 30.6495C76.8919 30.419 76.5154 30.1116 76.2388 29.7274C75.9468 29.2971 75.7316 28.69 75.5933 27.9062C75.455 27.1224 75.3858 26.0773 75.3858 24.771V20.022L73.8412 19.584V18.293H78.3136ZM88.4418 19.7915V18.6158L90.701 18.293L90.9777 15.4345L93.6057 15.0656V18.293H96.5565V19.7915H93.6057V27.3299C93.6057 27.8524 93.6134 28.2136 93.6288 28.4134C93.6442 28.5978 93.6749 28.7515 93.721 28.8745C93.7671 28.9667 93.8516 29.0358 93.9746 29.0819C94.0975 29.128 94.2973 29.1511 94.574 29.1511H96.1877V30.1654C95.2963 30.4421 94.5048 30.6419 93.8132 30.7648C93.137 30.9031 92.5991 30.9723 92.1995 30.9723C91.5079 30.9723 91.0622 30.688 90.8624 30.1193C90.8009 29.9349 90.7548 29.6967 90.7241 29.4047C90.6933 29.1127 90.678 28.6823 90.678 28.1137V19.7915H88.4418ZM108.188 15.9647V29.0128H113.767L114.551 25.0246H116.511V30.7418H103.024V29.4047L105.191 28.9206V15.9647L103.024 15.4806V14.1435H110.586V15.4806L108.188 15.9647ZM129.894 24.5174C129.894 25.501 129.748 26.4308 129.456 27.3068C129.179 28.1675 128.772 28.8898 128.234 29.4738C127.727 30.0117 127.112 30.396 126.39 30.6265C125.683 30.857 124.853 30.9723 123.9 30.9723C122.947 30.9723 122.109 30.857 121.387 30.6265C120.68 30.396 120.073 30.0117 119.566 29.4738C119.028 28.8898 118.613 28.1675 118.321 27.3068C118.044 26.4308 117.906 25.501 117.906 24.5174C117.906 23.5338 118.044 22.604 118.321 21.728C118.613 20.8519 119.028 20.1296 119.566 19.561C120.073 19.0231 120.68 18.6388 121.387 18.4083C122.109 18.1778 122.947 18.0625 123.9 18.0625C124.853 18.0625 125.683 18.1778 126.39 18.4083C127.112 18.6388 127.727 19.0231 128.234 19.561C128.772 20.1296 129.179 20.8519 129.456 21.728C129.748 22.604 129.894 23.5338 129.894 24.5174ZM121.802 28.5056C122.017 28.813 122.294 29.0435 122.632 29.1972C122.985 29.3509 123.408 29.4277 123.9 29.4277C124.392 29.4277 124.814 29.3509 125.168 29.1972C125.521 29.0435 125.798 28.813 125.998 28.5056C126.489 27.7525 126.735 26.4231 126.735 24.5174C126.735 23.5492 126.674 22.7346 126.551 22.0738C126.428 21.4129 126.244 20.8981 125.998 20.5292C125.798 20.2218 125.521 19.9913 125.168 19.8376C124.814 19.6839 124.392 19.6071 123.9 19.6071C123.408 19.6071 122.985 19.6839 122.632 19.8376C122.294 19.9913 122.017 20.2218 121.802 20.5292C121.31 21.2823 121.064 22.6117 121.064 24.5174C121.064 26.4231 121.31 27.7525 121.802 28.5056ZM142.913 30.8801C142.913 32.294 142.406 33.3314 141.391 33.9923C140.377 34.6531 138.763 34.9835 136.55 34.9835C135.567 34.9835 134.668 34.8913 133.853 34.7069C133.054 34.5225 132.416 34.2151 131.94 33.7848C131.463 33.3698 131.225 32.8012 131.225 32.0788C131.225 31.3719 131.448 30.8032 131.893 30.3729C132.339 29.9426 133 29.7121 133.876 29.6813V29.5891C132.708 29.2664 132.124 28.6823 132.124 27.8371C132.124 27.5297 132.201 27.2069 132.355 26.8688C132.508 26.5307 132.762 26.231 133.115 25.9698C133.469 25.7085 133.93 25.5394 134.498 25.4626C133.684 25.2628 133.046 24.8555 132.585 24.2408C132.124 23.6106 131.893 22.8729 131.893 22.0277C131.893 20.7982 132.308 19.8299 133.138 19.123C133.968 18.416 135.159 18.0625 136.712 18.0625C137.741 18.0625 138.548 18.1547 139.132 18.3392C139.716 18.5082 140.231 18.7695 140.677 19.123L141.461 18.8463L143.581 17.832H143.973V20.2065H143.581L141.968 20.022H141.391C141.699 20.4985 141.852 21.1209 141.852 21.8893C141.852 23.1496 141.461 24.1486 140.677 24.8863C139.893 25.6086 138.763 25.9698 137.288 25.9698C137.134 25.9698 136.981 25.9698 136.827 25.9698C136.673 25.9544 136.519 25.939 136.366 25.9236C135.766 26.0005 135.282 26.1388 134.913 26.3386C134.56 26.523 134.383 26.792 134.383 27.1455C134.383 27.4221 134.529 27.6142 134.821 27.7218C135.113 27.814 135.643 27.8601 136.412 27.8601H139.086C140.346 27.8601 141.299 28.1137 141.945 28.6209C142.59 29.1127 142.913 29.8657 142.913 30.8801ZM137.38 29.981H136.573C135.544 29.981 134.798 30.1424 134.337 30.4651C133.876 30.7879 133.645 31.2105 133.645 31.733C133.645 32.9011 134.744 33.4851 136.942 33.4851C138.126 33.4851 139.025 33.3083 139.639 32.9549C140.254 32.6168 140.561 32.1173 140.561 31.4564C140.561 30.9185 140.323 30.542 139.847 30.3268C139.37 30.0963 138.548 29.981 137.38 29.981ZM134.614 21.9354C134.614 22.7961 134.798 23.457 135.167 23.918C135.551 24.3637 136.081 24.5866 136.758 24.5866C137.572 24.5866 138.172 24.3637 138.556 23.918C138.94 23.457 139.132 22.7961 139.132 21.9354C139.132 21.1209 138.94 20.5061 138.556 20.0912C138.172 19.6762 137.572 19.4688 136.758 19.4688C136.066 19.4688 135.536 19.6762 135.167 20.0912C134.798 20.5061 134.614 21.1209 134.614 21.9354ZM156.841 24.5174C156.841 25.501 156.695 26.4308 156.403 27.3068C156.127 28.1675 155.72 28.8898 155.182 29.4738C154.674 30.0117 154.06 30.396 153.337 30.6265C152.63 30.857 151.801 30.9723 150.848 30.9723C149.895 30.9723 149.057 30.857 148.335 30.6265C147.628 30.396 147.021 30.0117 146.514 29.4738C145.976 28.8898 145.561 28.1675 145.269 27.3068C144.992 26.4308 144.854 25.501 144.854 24.5174C144.854 23.5338 144.992 22.604 145.269 21.728C145.561 20.8519 145.976 20.1296 146.514 19.561C147.021 19.0231 147.628 18.6388 148.335 18.4083C149.057 18.1778 149.895 18.0625 150.848 18.0625C151.801 18.0625 152.63 18.1778 153.337 18.4083C154.06 18.6388 154.674 19.0231 155.182 19.561C155.72 20.1296 156.127 20.8519 156.403 21.728C156.695 22.604 156.841 23.5338 156.841 24.5174ZM148.75 28.5056C148.965 28.813 149.242 29.0435 149.58 29.1972C149.933 29.3509 150.356 29.4277 150.848 29.4277C151.339 29.4277 151.762 29.3509 152.116 29.1972C152.469 29.0435 152.746 28.813 152.946 28.5056C153.437 27.7525 153.683 26.4231 153.683 24.5174C153.683 23.5492 153.622 22.7346 153.499 22.0738C153.376 21.4129 153.191 20.8981 152.946 20.5292C152.746 20.2218 152.469 19.9913 152.116 19.8376C151.762 19.6839 151.339 19.6071 150.848 19.6071C150.356 19.6071 149.933 19.6839 149.58 19.8376C149.242 19.9913 148.965 20.2218 148.75 20.5292C148.258 21.2823 148.012 22.6117 148.012 24.5174C148.012 26.4231 148.258 27.7525 148.75 28.5056Z" fill="#0A2D0A"/>
</svg>
